mtllib Watchog.mtl
v 0.0343733 0.644762 -0.401394
vt 0.180626 0.940681
vn 0.6893848 -0.09387568 -0.7182868
v 0.0644539 0.68244 -0.376641
vt 0.12439 0.968979
vn 0.6340209 0.7419339 -0.218063
v 0.0428829 0.613814 -0.356471
vt 0.12439 0.899585
vn 0.8907967 -0.4359618 0.128135
v 0.0343733 0.664148 -0.335437
vt 0.0681537 0.940681
vn 0.6893843 0.3097081 0.6548513
v 0 0.601722 -0.397613
vt 0.194548 0.899585
vn 0 -0.6871549 -0.7265109
v 0.0397721 0.704887 -0.383238
vt 0.12439 0.991677
vn 0.7102972 0.6753372 -0.1984881
v 0 0.664265 -0.438479
vt 0.229839 0.968979
vn 0 0.5631499 -0.8263548
v 0 0.681382 -0.37633
vt 0.12439 0.967909
vn 0 0.9594185 -0.2819858
v -0.0343733 0.644762 -0.401394
vn -0.6893843 -0.09387603 -0.7182873
v 0 0.696434 -0.416095
vt 0.179863 0.992799
vn 0 0.4986688 -0.8667926
v -0.0428829 0.613814 -0.356471
vn -0.8907965 -0.4359622 0.1281351
v 0.046008 0.615528 -0.404928
vt 0.199661 0.914436
vn 0.706749 -0.229824 -0.669094
v -0.046008 0.615528 -0.404928
vn -0.7067496 -0.2298229 -0.6690937
v 0 0.573675 -0.344673
vt 0.12439 0.858996
vn 0 -0.9594185 0.2819861
v 0 0.715557 -0.351033
vt 0.0689168 0.992799
vn 0 0.8883759 0.4591169
v -0.039772 0.704887 -0.383238
vn -0.710297 0.6753371 -0.198489
v -0.0343733 0.664148 -0.335437
vn -0.6893848 0.3097079 0.6548508
v -0.046008 0.641475 -0.316647
vt 0.049119 0.914436
vn -0.7067482 0.168764 0.6870412
v -0.0644539 0.68244 -0.376641
vn -0.6340218 0.7419327 -0.2180649
v 0 0.625907 -0.315328
vt 0.0542318 0.899585
vn 0 -0.18477 0.9827818
v 0.046008 0.641475 -0.316647
vn 0.706748 0.168766 0.687041
v 0 0.700615 -0.314802
vt 0.0189407 0.968979
vn 0 0.9207179 0.3902289
v 0 0.66824 0.137315
vt 0.939233 0.952954
vn 2.42312E-05 0.8789158 0.4769769
v 0.0801265 0.694591 0.031689
vt 0.949911 0.956334
vn 0.186593 0.9792291 0.07933101
v 0 0.703713 -0.0326699
vt 0.939233 0.958659
vn 0 0.9746901 -0.22356
v 0.0697132 0.645257 0.14298
vt 0.949305 0.948774
vn 0.331549 0.7204069 0.6091709
v -0.0801265 0.694591 0.031689
vt 0.928555 0.956334
vn -0.186587 0.9792292 0.07934432
v 0.0478119 0.589569 0.179285
vt 0.946961 0.942729
vn 0.3222351 0.2639411 0.9091203
v -0.0697132 0.645257 0.14298
vt 0.92916 0.948774
vn -0.331672 0.720428 0.609079
v 0 0.587016 0.188428
vt 0.939233 0.942729
vn 0.000443547 0.347373 0.937727
v -0.0478128 0.589569 0.179333
vt 0.931505 0.942729
vn -0.3223589 0.2640469 0.9090457
v 0.106059 0.637485 -0.101208
vt 0.953367 0.951048
vn 0.5393658 0.5939367 -0.5969287
v 0.151622 0.630052 0.0806451
vt 0.959439 0.948203
vn 0.7871991 0.469322 0.400068
v 0.151341 0.629389 -0.0218461
vt 0.959402 0.948192
vn 0.8339988 0.4084159 -0.3710019
v 0.178864 0.713121 0.0138687
vt 0.96307 0.958671
vn 0.6153188 0.7826937 -0.09366567
v -0.151622 0.630052 0.0806451
vt 0.919026 0.948203
vn -0.7871898 0.4693089 0.4001019
v -0.106059 0.637485 -0.101208
vt 0.925099 0.951048
vn -0.5393598 0.5939318 -0.5969388
v -0.178864 0.713121 0.0138688
vt 0.915396 0.958671
vn -0.6153227 0.7826986 -0.09359956
v -0.151341 0.629397 -0.0218461
vt 0.919064 0.948193
vn -0.8339884 0.4084262 -0.3710141
v 0.135458 0.604158 0.132539
vt 0.956721 0.944093
vn 0.6130509 0.3138269 0.7250388
v 0.157652 0.518856 -0.0783153
vt 0.960493 0.937831
vn 0.757216 0.153795 -0.6348
v 0 0.642463 -0.136409
vt 0.939233 0.950518
vn 0 0.5943699 -0.8041918
v 0.0766489 0.537276 -0.158736
vt 0.948849 0.937719
vn 0.3432139 0.0183078 -0.9390788
v -0.135456 0.604159 0.132499
vt 0.921745 0.944093
vn -0.6131672 0.3138551 0.7249283
v -0.157652 0.518856 -0.0783153
vt 0.917973 0.937831
vn -0.7572181 0.153793 -0.634798
v -0.180828 0.549322 0.0218654
vt 0.915134 0.939934
vn -0.860287 0.507096 -0.0525354
v 0.154656 0.538871 0.122872
vt 0.959576 0.937406
vn 0.6995841 0.415473 0.581347
v 0.180828 0.549322 0.0218654
vt 0.963331 0.939934
vn 0.8602788 0.5071099 -0.05253499
v -0.0766489 0.537276 -0.158736
vt 0.929617 0.937719
vn -0.3432139 0.0183078 -0.9390788
v 0.12402 0.427709 -0.0948162
vt 0.954791 0.922943
vn 0.3768841 -0.6204721 -0.6877301
v 0 0.443554 -0.143593
vt 0.939233 0.924965
vn 0 -0.5013382 -0.8652514
v -0.154656 0.538871 0.122872
vt 0.91889 0.937406
vn -0.6994891 0.415655 0.5813311
v 0.180299 0.51827 0.144358
vt 0.96496 0.934136
vn 0.6255603 0.4424882 0.6425563
v 0.212376 0.442994 -0.0456116
vt 0.965875 0.924084
vn 0.7592668 -0.2747729 -0.5899269
v 0.233646 0.510219 0.0228586
vt 0.969336 0.935789
vn 0.886168 0.455571 -0.0846251
v -0.12402 0.427709 -0.0948162
vt 0.923675 0.922943
vn -0.3768841 -0.6204721 -0.6877301
v 0 0.377796 -0.0647864
vt 0.939233 0.916661
vn 0 -0.9256107 -0.3784769
v -0.180299 0.51827 0.144358
vt 0.913506 0.934136
vn -0.6256259 0.4425369 0.6424589
v -0.233646 0.510219 0.0228586
vt 0.90913 0.935789
vn -0.886168 0.455571 -0.0846251
v 0.236965 0.446613 0.0599884
vt 0.968037 0.922214
vn 0.9674179 -0.185989 0.171787
v 0.180143 0.371289 0.0193418
vt 0.961832 0.915785
vn 0.3720931 -0.8966813 -0.2398111
v -0.100651 0.381157 0.0281599
vt 0.926606 0.917017
vn -0.05332117 -0.9968744 -0.05829467
v 0.100651 0.381157 0.0281599
vt 0.95186 0.917017
vn 0.05332461 -0.9968743 -0.05829392
v 0 0.36897 0.0576934
vt 0.939233 0.915467
vn 0 -0.9954717 0.09505847
v -0.212376 0.442994 -0.0456116
vt 0.912591 0.924084
vn -0.7592664 -0.2747732 -0.5899273
v -0.236965 0.446613 0.0599884
vt 0.910429 0.922214
vn -0.96742 -0.185987 0.171777
v -0.180143 0.371289 0.0193418
vt 0.916634 0.915785
vn -0.3720928 -0.8966836 -0.2398029
v -0.0773 0.059761 0.115
vt 0.157195 0.0773033
vn -0.5681499 -0.3679889 0.7360638
v -0.145805 0.176596 0
vt 0.0735358 0.171586
vn -0.9776246 0.03154202 -0.2079791
v -0.1483 0.059761 0
vt 0.063833 0.0773033
vn -0.984094 -0.177589 0.004602029
v -0.077 0.176596 0.116302
vt 0.162046 0.171586
vn -0.5205821 -0.06388651 0.8514181
v -0.0785 7.450581E-09 0
vt 0.157194 0.00434196
vn -0.1839339 -0.9829385 -0.0004461798
v 0 0.176596 0.123064
vt 0.250557 0.171586
vn 0 0.100466 0.9949405
v 0 0.027561 0
vt 0.250557 0.0403697
vn 0 -1 0.000197393
v 0.0773 0.059761 0.115
vt 0.343919 0.0773033
vn 0.5681499 -0.3679889 0.7360638
v -0.224022 0.241937 0.132773
vt 0.00662428 0.307885
vn -0.8392159 0.189204 0.509822
v -0.0773 0.059761 -0.1165
vn -0.562633 -0.377014 -0.735734
v 0.077 0.176596 0.116302
vt 0.339067 0.171586
vn 0.5205821 -0.0638864 0.8514181
v -0.0539 0.298404 0.0864272
vt 0.182229 0.412704
vn -0.2298639 0.276567 0.9330987
v 0.0539 0.298404 0.0864272
vt 0.318884 0.412704
vn 0.2328209 0.277209 0.9321747
v -0.0967926 0.298404 0.0508695
vt 0.148065 0.412704
vn -0.6312682 0.6708892 0.3891121
v 0.0785 7.450581E-09 0
vt 0.34392 0.00434196
vn 0.1839339 -0.9829385 -0.0004461548
v 0.0773 0.059761 -0.1165
vn 0.562633 -0.377014 -0.735734
v 0.0967926 0.298404 0.0508695
vt 0.353048 0.412704
vn 0.631268 0.670889 0.3891129
v 0.145805 0.176596 0
vt 0.427578 0.171586
vn 0.9776247 0.03154199 -0.2079789
v 0.224022 0.241937 0.132773
vt 0.494489 0.307885
vn 0.8392159 0.189204 0.509822
v -0.0488804 0.362418 0.0719876
vt 0.18625 0.482897
vn -0.2768181 0.6976532 0.6607962
v 0.1483 0.059761 0
vt 0.43728 0.0773033
vn 0.984094 -0.177589 0.00460202
v 0.0488804 0.362418 0.0719876
vt 0.314863 0.482897
vn 0.28205 0.7056 0.6500589
v 0.0978514 0.362418 0.000435497
vt 0.39272 0.482897
vn 0.7017643 0.7104723 -0.05249682
v -0.0978514 0.362418 0.000435497
vt 0.108394 0.482897
vn -0.7017643 0.7104723 -0.05249682
v 0 0.387395 -0.00130954
vt 0.250557 0.492207
vn 0 0.9999997 -0.0007956928
v 0.077513 0.411003 0.146743
vt 0.747038 0.607052
vn 0.2333481 -0.7740943 0.5884953
v 0 0.461781 0.25221
vt 0.62138 0.697026
vn 8.610854E-05 -0.4489352 0.8935643
v 0 0.380288 0.148232
vt 0.62138 0.557247
vn 0 -0.9119042 0.4104031
v 0.0899074 0.495742 0.168722
vt 0.7608 0.778579
vn 0.423582 -0.0287651 0.905401
vt 0.62138 0.517098
v 0.179648 0.43831 0.166798
vt 0.905153 0.632107
vn 0.4815169 -0.2752509 0.8320928
vt 0.784547 0.554206
v 0.181964 0.380051 0.0989202
vt 0.903904 0.586013
vn 0.3412851 -0.8695682 0.3568971
v -0.077513 0.411003 0.146743
vn -0.2332551 -0.7741672 0.5884362
v -4.56869E-06 0.504797 0.251088
vt 0.62138 0.771787
vn 0.000119348 0.116436 0.9931982
v -0.0899075 0.495743 0.168752
vn -0.4236849 -0.02883289 0.9053507
vt 1.00416 0.615606
vt 0.957096 0.780963
vt 0.837117 0.509897
v 0.0159922 0.52339 0.230527
vt 0.641194 0.80064
vn 0.5364357 0.7045306 0.4646217
v -0.0159968 0.52339 0.230542
vt 0.60156 0.80064
vn -0.5099581 0.7590641 0.404678
vt 0.462257 0.778579
v -0.179648 0.43831 0.166813
vn -0.481546 -0.275263 0.832072
vt 0.932144 0.859647
v 0.0250918 0.508943 0.195841
vt 0.662057 0.834575
vn 0.2618381 0.5176202 0.8145613
v -0.0250918 0.508943 0.195856
vt 0.580704 0.834575
vn -0.2602502 0.5395433 0.8007265
v -0.181964 0.380051 0.0989277
vn -0.3412939 -0.8695698 0.3568849
vt 0.62138 0.961204
vt 0.721241 0.961204
vt 0.521518 0.961204
v -0.0796738 0.176596 -0.113414
vt 0.666976 0.171586
vn -0.7267493 0.1392211 -0.6726463
v 0 0.176596 -0.125548
vt 0.750264 0.171586
vn 0 0.104725 -0.9945012
vt 0.659794 0.0773033
v -0.0488804 0.362418 -0.0788956
vt 0.684988 0.482897
vn -0.5191371 0.4487521 -0.7274051
vt 0.569325 0.0773033
v -0.110053 0.298404 0.000410955
vt 0.612136 0.391692
vn -0.8907652 0.2428211 -0.3841551
vt 0.583689 0.171586
vt 0.840732 0.0773033
v 0.0488804 0.362418 -0.0788956
vt 0.815538 0.482897
vn 0.5191371 0.4487521 -0.7274051
v 0.0796738 0.176596 -0.113414
vt 0.833551 0.171586
vn 0.7267493 0.1392211 -0.6726463
vt 0.579342 0.409083
vt 0.750263 0.0403697
vt 0.750263 0.492207
vt 0.619714 0.482897
vt 0.931201 0.0773033
v 0.110053 0.298404 0.000410955
vt 0.888391 0.391692
vn 0.8907652 0.2428211 -0.3841551
vt 0.916839 0.171586
vt 0.880813 0.482897
vt 0.920584 0.409083
v 0 0.263128 -0.271596
vt 0.148117 0.653509
vn 0.00268433 -0.369578 -0.9291959
v 0 0.0789917 -0.159728
vt 0.148117 0.523927
vn -0.003799529 -0.5545019 -0.8321738
v -0.0169996 0.0865869 -0.144519
vt 0.124989 0.523927
vn -0.9985434 -0.02110201 0.04965762
v 0.0166594 0.269342 -0.256138
vt 0.124988 0.653509
vn 0.9983149 -0.0220272 -0.05368729
v -0.0166594 0.269342 -0.256138
vn -0.9983022 -0.02195911 -0.05394851
v 0 0.613061 -0.373229
vt 0.148117 0.835902
vn -0.002153301 -0.2788121 -0.9603433
v -0.0161576 0.617199 -0.35761
vt 0.124988 0.835902
vn -0.9998941 -0.00282956 -0.0142719
v 0 0.0767148 -0.139589
vt 0.124989 0.505874
vn 0 -0.8946415 0.4467848
v 0.0169996 0.0865869 -0.144519
vn 0.9985765 -0.02202371 0.04858032
v 0 0.621337 -0.341991
vt 0.10186 0.835902
vn -0.003256489 0.2812609 0.9596258
v 0 0.094182 -0.129311
vt 0.10186 0.523927
vn -0.00180592 0.479174 0.8777181
v 0 0.275555 -0.240681
vt 0.10186 0.653509
vn 0.00288377 0.3759069 0.9266529
v 0.0161576 0.617199 -0.35761
vn 0.9999117 -0.002465309 -0.013057
v 0 0.392549 0.224887
vt 0.0416368 0.814007
vn 0 -0.3608458 0.9326255
v 0 0.462272 0.251864
vt 0.0416368 0.860026
v -0.0381616 0.435866 0.198798
vt 0.0152875 0.841794
vn -0.7232082 -0.2492111 0.6440992
v 0.0381616 0.435866 0.198798
vt 0.067986 0.841794
vn 0.7232082 -0.2492111 0.6440992
o merged_0_0_node
g polygon_0
usemtl mat_body_mat_id
f 1/1/1 2/2/2 3/3/3
f 1/1/1 4/4/4 2/2/2
f 1/1/1 3/3/3 5/5/5
f 1/1/1 6/6/6 4/4/4
f 1/1/1 5/5/5 7/7/7
f 1/1/1 8/8/8 6/6/6
f 1/1/1 7/7/7 9/1/9
f 1/1/1 10/9/10 8/8/8
f 1/1/1 9/1/9 10/9/10
f 10/9/10 9/1/9 8/8/8
f 7/7/7 5/5/5 9/1/9
f 6/6/6 8/8/8 4/4/4
f 2/2/2 4/4/4 3/3/3
f 5/5/5 11/3/11 9/1/9
f 5/5/5 3/3/3 12/10/12
f 5/5/5 13/10/13 11/3/11
f 5/5/5 12/10/12 14/11/14
f 5/5/5 14/11/14 13/10/13
f 13/10/13 14/11/14 11/3/11
f 12/10/12 3/3/3 14/11/14
f 8/8/8 15/12/15 4/4/4
f 8/8/8 9/1/9 16/6/16
f 8/8/8 17/4/17 15/12/15
f 8/8/8 16/6/16 17/4/17
f 16/6/16 9/1/9 17/4/17
f 15/12/15 17/4/17 4/4/4
f 11/3/11 14/11/14 18/13/18
f 11/3/11 19/2/19 9/1/9
f 11/3/11 17/4/17 19/2/19
f 11/3/11 18/13/18 20/14/20
f 11/3/11 20/14/20 17/4/17
f 18/13/18 14/11/14 20/14/20
f 19/2/19 17/4/17 9/1/9
f 3/3/3 4/4/4 20/14/20
f 3/3/3 21/13/21 14/11/14
f 3/3/3 20/14/20 21/13/21
f 21/13/21 20/14/20 14/11/14
f 17/4/17 22/15/22 4/4/4
f 17/4/17 20/14/20 22/15/22
f 22/15/22 20/14/20 4/4/4
f 23/16/23 24/17/24 25/18/25
f 23/16/23 26/19/26 24/17/24
f 23/16/23 25/18/25 27/20/27
f 23/16/23 28/21/28 26/19/26
f 23/16/23 27/20/27 29/22/29
f 23/16/23 30/23/30 28/21/28
f 23/16/23 29/22/29 31/24/31
f 23/16/23 31/24/31 30/23/30
f 24/17/24 32/25/32 25/18/25
f 24/17/24 26/19/26 33/26/33
f 24/17/24 34/27/34 32/25/32
f 24/17/24 33/26/33 35/28/35
f 24/17/24 35/28/35 34/27/34
f 35/28/35 33/26/33 34/27/34
f 27/20/27 36/29/36 29/22/29
f 27/20/27 25/18/25 37/30/37
f 27/20/27 38/31/38 36/29/36
f 27/20/27 37/30/37 39/32/39
f 27/20/27 39/32/39 38/31/38
f 38/31/38 39/32/39 36/29/36
f 26/19/26 40/33/40 33/26/33
f 32/25/32 34/27/34 41/34/41
f 32/25/32 42/35/42 25/18/25
f 32/25/32 41/34/41 43/36/43
f 32/25/32 43/36/43 42/35/42
f 25/18/25 42/35/42 37/30/37
f 29/22/29 36/29/36 44/37/44
f 39/32/39 37/30/37 45/38/45
f 39/32/39 46/39/46 36/29/36
f 39/32/39 45/38/45 46/39/46
f 40/33/40 47/40/47 33/26/33
f 34/27/34 48/41/48 41/34/41
f 34/27/34 33/26/33 48/41/48
f 33/26/33 47/40/47 48/41/48
f 43/36/43 49/42/49 42/35/42
f 43/36/43 41/34/41 50/43/50
f 43/36/43 51/44/51 49/42/49
f 43/36/43 50/43/50 51/44/51
f 37/30/37 49/42/49 45/38/45
f 37/30/37 42/35/42 49/42/49
f 44/37/44 36/29/36 52/45/52
f 36/29/36 46/39/46 52/45/52
f 47/40/47 53/46/53 48/41/48
f 41/34/41 54/47/54 50/43/50
f 41/34/41 48/41/48 55/48/55
f 41/34/41 55/48/55 54/47/54
f 48/41/48 53/46/53 55/48/55
f 51/44/51 56/49/56 49/42/49
f 51/44/51 50/43/50 57/50/57
f 51/44/51 57/50/57 56/49/56
f 49/42/49 56/49/56 45/38/45
f 46/39/46 58/51/58 52/45/52
f 46/39/46 45/38/45 59/52/59
f 46/39/46 59/52/59 58/51/58
f 54/47/54 55/48/55 60/53/60
f 54/47/54 61/54/61 50/43/50
f 54/47/54 60/53/60 61/54/61
f 60/53/60 55/48/55 53/46/53
f 57/50/57 62/55/62 56/49/56
f 57/50/57 50/43/50 63/56/63
f 57/50/57 64/57/64 62/55/62
f 57/50/57 63/56/63 64/57/64
f 63/56/63 50/43/50 61/54/61
f 45/38/45 65/58/65 59/52/59
f 45/38/45 56/49/56 65/58/65
f 58/51/58 59/52/59 66/59/66
f 59/52/59 65/58/65 66/59/66
f 62/55/62 67/60/67 56/49/56
f 67/60/67 66/59/66 65/58/65
f 67/60/67 65/58/65 56/49/56
f 68/61/68 69/62/69 70/63/70
f 68/61/68 71/64/71 69/62/69
f 68/61/68 70/63/70 72/65/72
f 68/61/68 73/66/73 71/64/71
f 68/61/68 72/65/72 74/67/74
f 68/61/68 75/68/75 73/66/73
f 68/61/68 74/67/74 75/68/75
f 69/62/69 71/64/71 76/69/76
f 70/63/70 77/61/77 72/65/72
f 72/65/72 77/61/77 74/67/74
f 73/66/73 75/68/75 78/70/78
f 73/66/73 79/71/79 71/64/71
f 73/66/73 78/70/78 80/72/80
f 73/66/73 80/72/80 79/71/79
f 76/69/76 71/64/71 81/73/81
f 76/69/76 81/73/81 69/64/69
f 71/64/71 79/71/79 81/73/81
f 74/67/74 82/74/82 75/68/75
f 74/67/74 83/68/83 82/74/82
f 78/70/78 84/75/84 80/72/80
f 78/70/78 75/68/75 85/76/85
f 78/70/78 86/77/86 84/75/84
f 78/70/78 85/76/85 86/77/86
f 79/71/79 87/78/87 81/73/81
f 79/71/79 80/72/80 87/78/87
f 83/68/83 88/79/88 82/74/82
f 88/79/88 85/76/85 75/68/75
f 88/79/88 75/68/75 82/74/82
f 84/75/84 86/77/86 85/70/85
f 84/75/84 89/80/89 80/72/80
f 84/75/84 90/81/90 89/80/89
f 80/72/80 89/80/89 87/78/87
f 81/73/81 87/78/87 91/82/91
f 90/81/90 92/83/92 89/80/89
f 92/83/92 91/82/91 87/78/87
f 92/83/92 87/78/87 89/80/89
f 93/84/93 94/85/94 95/86/95
f 93/84/93 96/87/96 94/85/94
f 93/84/93 95/86/95 64/88/64
f 93/84/93 97/89/97 96/87/96
f 93/84/93 64/88/64 63/90/63
f 93/84/93 98/91/98 97/89/97
f 93/84/93 63/90/63 98/91/98
f 94/85/94 99/84/99 95/86/95
f 94/85/94 96/87/96 100/92/100
f 94/85/94 101/87/101 99/84/99
f 94/85/94 100/92/100 101/87/101
f 95/86/95 99/84/99 64/88/64
f 97/89/97 98/91/98 60/93/60
f 97/89/97 53/94/53 96/87/96
f 97/89/97 60/93/60 53/94/53
f 63/90/63 61/95/61 98/91/98
f 98/91/98 61/95/61 60/93/60
f 100/92/100 96/87/96 102/96/102
f 100/92/100 102/96/102 103/97/103
f 100/92/100 103/97/103 101/98/101
f 101/87/101 104/89/104 99/84/99
f 101/87/101 58/94/58 104/89/104
f 101/87/101 52/99/52 58/94/58
f 64/88/64 99/84/99 62/90/62
f 53/94/53 47/99/47 96/87/96
f 102/96/102 105/100/105 103/97/103
f 102/96/102 96/87/96 105/100/105
f 101/98/101 103/97/103 106/101/106
f 103/97/103 105/100/105 106/101/106
f 104/89/104 58/94/58 66/93/66
f 104/89/104 107/91/107 99/84/99
f 104/89/104 66/93/66 107/91/107
f 99/84/99 107/91/107 62/90/62
f 105/100/105 30/102/30 106/101/106
f 105/100/105 28/103/28 30/102/30
f 66/93/66 67/95/67 107/91/107
f 107/91/107 67/95/67 62/90/62
f 106/101/106 30/102/30 31/104/31
f 108/105/108 109/106/109 77/107/77
f 108/105/108 110/108/110 109/106/109
f 108/105/108 77/107/77 70/109/70
f 108/105/108 111/110/111 110/108/110
f 108/105/108 70/109/70 69/111/69
f 108/105/108 69/111/69 111/110/111
f 109/106/109 83/112/83 77/107/77
f 109/106/109 110/108/110 112/113/112
f 109/106/109 113/114/113 83/112/83
f 109/106/109 112/113/112 113/114/113
f 69/111/69 81/115/81 111/110/111
f 77/107/77 83/112/83 74/116/74
f 110/108/110 92/117/92 112/113/112
f 110/108/110 111/110/111 91/118/91
f 110/108/110 91/118/91 92/117/92
f 91/118/91 111/110/111 81/115/81
f 113/114/113 88/119/88 83/112/83
f 113/114/113 112/113/112 114/120/114
f 113/114/113 85/121/85 88/119/88
f 113/114/113 114/120/114 85/121/85
f 92/117/92 90/122/90 112/113/112
f 112/113/112 90/122/90 114/120/114
f 85/121/85 114/120/114 84/123/84
f 84/123/84 114/120/114 90/122/90
f 115/124/115 116/125/116 117/126/117
f 115/124/115 118/127/118 116/125/116
f 115/124/115 117/126/117 119/127/119
f 115/124/115 120/128/120 118/127/118
f 115/124/115 119/127/119 121/129/121
f 115/124/115 121/129/121 120/128/120
f 116/125/116 122/130/122 117/126/117
f 116/125/116 118/127/118 123/126/123
f 116/125/116 123/126/123 122/130/122
f 119/127/119 124/131/124 121/129/121
f 119/127/119 117/126/117 125/132/125
f 119/127/119 126/133/126 124/131/124
f 119/127/119 125/132/125 126/133/126
f 125/132/125 123/126/123 126/133/126
f 125/132/125 117/126/117 122/130/122
f 125/132/125 122/130/122 123/126/123
f 123/126/123 118/127/118 126/133/126
f 120/128/120 127/129/127 118/127/118
f 127/129/127 124/131/124 126/133/126
f 127/129/127 126/133/126 118/127/118
f 128/134/128 129/135/128 130/136/129
f 128/134/128 131/137/130 129/135/128
vt 0.849939 0.906678
vt 0.899089 0.764752
vt 0.447738 0.752511
vt 0.272684 0.918809
vt 0.0642776 0.775375
vt 0.849951 0.906676
vt 0.470137 0.996673
o merged_1_0_node
g polygon_0
usemtl TEX_ANIM_EYE_mat_id
f 44/138/44 52/139/52 101/140/101
f 44/138/44 101/140/101 31/141/31
f 106/142/106 31/141/31 101/140/101
f 40/143/40 26/144/26 28/141/28
f 31/141/31 29/144/29 44/138/44
f 105/142/105 96/140/96 28/141/28
f 96/140/96 47/139/47 40/143/40
f 96/140/96 40/143/40 28/141/28
