mtllib Bidoof_F.mtl
v 0 0.127167 -0.112757
vt 0 0.672788
vn 0 -0.8050882 0.5931551
v 0.0779337 0.127167 -0.112757
vt -0.374476 0.672643
vn 0.5635669 -0.6341289 0.5294079
v 0.0489687 0.187959 -0.0902
vt -0.235297 0.850086
vn 0.2752639 0.3015729 0.9128437
v 0.0443438 0.13363 -0.155798
vt -0.213075 0.724594
vn -0.003012201 -0.7921314 -0.6103432
v -0.0489687 0.187959 -0.0902
vt 0.235298 0.850086
vn -0.2752639 0.3015729 0.9128437
v 0.04615171 0.164086 -0.170223
vt -0.221762 0.832223
vn 0.2819579 -0.2336739 -0.9305355
v -0.0779337 0.127167 -0.112757
vt 0.374476 0.672643
vn -0.5635666 -0.6341286 0.5294087
v 0 0.185493 -0.17787
vt 0 0.906059
vn 0 0.143614 -0.9896338
v -0.0443438 0.13363 -0.155798
vt 0.213075 0.724594
v -0.04615171 0.164086 -0.170223
vt 0.221762 0.832223
vn -0.2819581 -0.2336741 -0.9305353
v 0 0.224397 -0.13612
vt 0 0.999727
vn 0 0.9971171 -0.0758777
v 0.0779337 0.188395 -0.134631
vt -0.374476 0.883829
vn 0.8336804 0.5227402 -0.1781001
v -0.0779337 0.188395 -0.134631
vt 0.374476 0.883829
vn -0.8336807 0.5227398 -0.1781
v 0 0.100137 0.330974
vt 0.901242 0.653197
vn 0 -0.9409214 0.3386251
v -0.106851 0.0910301 0.20461
vt 0.92847 0.65118
vn -0.4056869 -0.9136247 -0.02661009
v 0 0.0684126 0.20461
vt 0.92847 0.646171
vn 0 -0.9997419 0.0227223
v -0.140209 0.141531 0.333605
vt 0.900675 0.662364
vn -0.611453 -0.680569 0.403672
v 0.106851 0.0910301 0.20461
vn 0.4056869 -0.9136247 -0.02660999
v -0.0701047 0.13964 0.35911
vt 0.89518 0.661945
vn -0.2641821 -0.6888162 0.6750852
v 0.140209 0.141531 0.333605
vn 0.6114523 -0.6805694 0.4036722
v 0 0.137749 0.384614
vt 0.889684 0.661527
vn 0 -0.8187761 0.5741131
v 0.0701047 0.13964 0.35911
vn 0.2641821 -0.6888162 0.6750852
v 0 0.0945442 0.0888882
vt 0.953405 0.651958
vn 0 -0.8734048 -0.4869949
v -0.184048 0.152822 0.20461
vt 0.92847 0.664865
vn -0.8777502 -0.4771211 -0.04370531
v -0.124588 0.152822 0.0700849
vt 0.957457 0.664865
vn -0.5596021 -0.5682151 -0.6033051
v -0.10309 0.200688 0.365738
vt 0.893752 0.675465
vn -0.364311 0.109925 0.924767
v 0.10309 0.200688 0.365738
vn 0.3643101 0.109925 0.9247674
v 0.184048 0.152822 0.20461
vn 0.8777502 -0.4771211 -0.04370531
v 0.15111 0.209764 0.336604
vt 0.900029 0.677476
vn 0.8826258 0.04416699 0.4679969
v 0.197295 0.238824 0.187526
vt 0.92847 0.680332
vn 0.9906814 0.08263833 -0.108265
v -0.197295 0.238824 0.187526
vn -0.9906814 0.08263833 -0.108265
v 0.124588 0.152822 0.0700849
vn 0.5596021 -0.5682151 -0.6033051
v 0 0.169969 0.0256152
vt 0.967039 0.668662
vn 0 -0.265035 -0.9642388
v -0.15111 0.209764 0.336604
vn -0.8826258 0.04416729 0.4679969
v -0.130865 0.307069 0.330863
vt 0.901266 0.699026
vn -0.61041 0.5154781 0.6014001
v 0.130865 0.307069 0.330863
vn 0.61041 0.5154781 0.6014001
v -0.133532 0.229946 0.060889
vt 0.959438 0.681945
vn -0.626904 0.127639 -0.7685699
v 0.133532 0.229946 0.060889
vn 0.626904 0.127639 -0.7685699
v -0.173838 0.307069 0.20461
vt 0.92847 0.699026
vn -0.9102134 0.4138092 0.01653821
v -0.106851 0.378581 0.20461
vt 0.92847 0.714863
vn -0.3797191 0.8625202 0.3344731
v 0 0.383433 0.304078
vt 0.907038 0.715938
vn 0 0.8916101 0.452804
v 0 0.320085 0.372405
vt 0.892315 0.701908
vn 0 0.4761559 0.8793609
v 0 0.286279 0.0329829
vt 0.965451 0.694421
vn 0 0.3301609 -0.9439247
v -0.116284 0.328372 0.100017
vt 0.951007 0.703743
vn -0.569151 0.584263 -0.578536
v 0.173838 0.307069 0.20461
vn 0.9102131 0.41381 0.0165381
v 0.116284 0.328372 0.100017
vn 0.569151 0.584263 -0.578536
v 0 0.394322 0.20461
vt 0.92847 0.718349
vn 0 0.9986547 -0.05185448
v -0.184447 0.377837 0.144123
vt 0.941503 0.714698
vn -0.7615891 -0.171729 -0.6248931
v -0.0652063 0.363183 0.138628
vt 0.942687 0.711453
vn -0.2832761 0.9189674 -0.2743241
v -0.114235 0.422883 0.144817
vt 0.941354 0.724675
vn 0.01656499 0.9141605 -0.4050138
vn 0.2776421 -0.2018611 -0.9392375
v 0.106851 0.378581 0.20461
vn 0.3797191 0.8625202 0.3344731
v 0 0.365218 0.0963769
vt 0.951791 0.711904
vn 0 0.7876829 -0.6160809
v 0.184447 0.377837 0.144123
vn 0.7615885 -0.1717289 -0.6248937
v 0.0652063 0.363183 0.138628
vn 0.283276 0.9189671 -0.274325
vn -0.277642 -0.20186 -0.9392378
v 0.114235 0.422883 0.144817
vn -0.01656459 0.9141605 -0.4050138
v 0 0.0491283 0.311121
vt 0 0.0737475
vn 0 -0.5605057 0.8281506
v -0.0886092 0.0111603 0.257759
vt -0.207107 0.00452751
vn -0.127812 -0.8840201 -0.4496361
v 0 0.0253851 0.257759
vt 0 0.00452748
vn 0.149532 -0.9314598 -0.3316969
v -0.0686607 0.0267749 0.311121
vt -0.168535 0.0737475
vn -0.3495639 -0.4519719 0.8206867
v -0.0487122 0.119278 0.332161
vt -0.129963 0.142968
vn -0.2748379 -0.2870539 0.9176406
v 0.0487122 0.119278 0.332161
vt 0.129963 0.142968
vn 0.2789671 -0.3029951 0.9112472
v 0.0686608 0.0267749 0.311121
vt 0.168535 0.0737475
vn 0.3701348 -0.4548048 0.8100327
v 0.0886093 0.0111603 0.257759
vt 0.207107 0.00452745
vn 0.1342929 -0.8855866 -0.4446368
vn -0.149532 -0.9314598 -0.3316969
v 0 0.104876 0.152332
vt 0 0.195443
vn -0.1194299 -0.6166927 -0.7780917
v -0.131862 0.0369931 0.251859
vt -0.294067 0.0838296
vn -0.369754 -0.9244899 0.09273949
v 0.123522 0.0369931 0.251859
vt 0.294067 0.0838296
vn 0.367576 -0.926722 0.0779379
v 0.13554 0.137428 0.301269
vt 0.313758 0.279589
vn 0.5609979 -0.3028239 0.7704408
vn 0.116436 -0.620349 -0.7756351
v -0.13554 0.137428 0.301269
vt -0.313758 0.279589
vn -0.567087 -0.286398 0.772262
v -0.187646 0.0427337 0.236002
vt -0.415726 0.143085
vn -0.519976 -0.710735 -0.473794
v -0.1689 0.152704 0.170947
vt -0.331218 0.358046
vn -0.325653 -0.4193281 -0.8474162
v 0.187646 0.0427336 0.236002
vt 0.415726 0.143085
vn 0.5145167 -0.7338466 -0.4435557
v 0.194723 0.110139 0.214723
vt 0.418717 0.310424
vn 0.9425995 -0.2463908 0.2253839
v 0.236289 0.201347 0.205801
vt 0.457219 0.571049
vn 0.9889999 0.08694969 0.119662
v 0.163001 0.199358 0.267285
vt 0.313758 0.493525
vn 0.6160799 0.2620019 0.7428328
v -0.194723 0.110139 0.214723
vt -0.418717 0.310424
vn -0.9425994 -0.2463911 0.2253841
v -0.236289 0.201347 0.205801
vt -0.457219 0.571049
vn -0.9889999 0.0869498 0.119662
v -0.196878 0.23921 0.187099
vt -0.349927 0.663227
vn -0.7291519 0.6422939 -0.2362119
v 0.168901 0.152704 0.170947
vt 0.331218 0.358046
vn 0.3256527 -0.4193277 -0.8474164
v 0.196878 0.23921 0.187099
vt 0.349927 0.663227
vn 0.7291529 0.6422929 -0.236212
v -0.163001 0.199358 0.267285
vt -0.313758 0.493525
vn -0.61608 0.262001 0.742833
v -0.0793524 0.130594 0.397014
vt 0.906078 0.0377695
vn -0.4158531 -0.5674441 0.7106851
vt 0.901551 0.042758
vn -0.4277658 -0.8458277 -0.3187349
vt 0.934501 0.0415682
vn 0 -0.788531 0.614995
v -0.111619 0.193734 0.386768
vt 0.889422 0.0620687
vn -0.7084609 0.186099 0.6807719
v 0 0.192545 0.438972
vt 0.934639 0.0716598
vn 0 -0.07179296 0.9974195
vt 0.897736 0.0812856
vn -0.6661109 0.705393 -0.242316
v 0.0793524 0.130594 0.397014
vt 0.962887 0.0375088
vn 0.4158531 -0.5674441 0.7106851
vt 0.96746 0.0424555
vn 0.4277658 -0.8458277 -0.3187349
v 0 0.236225 0.420659
vt 0.934728 0.0911807
vn 0 0.8371217 0.5470168
v 0.111619 0.193734 0.386768
vt 0.979765 0.0616541
vn 0.7084609 0.186099 0.6807719
v 0 0.209764 0.394871
vt 0.934682 0.0811161
vn 0 0.6979467 -0.7161497
vt 0.971628 0.0809465
vn 0.6661109 0.705393 -0.242316
v 0 0.0930123 0.401633
vt 0.75664 0.891992
v -0.0384892 0.174779 0.401633
vt 0.5161 1.01466
vn -0.0468385 -0.0220477 0.9986591
v -0.0384892 0.0930123 0.390907
vt 0.5161 0.891992
vn -0.2663331 -0.125367 0.9556934
v 0.0384892 0.174779 0.401633
vt 0.997181 1.01466
vn 0.0468385 -0.0220477 0.9986591
v 0.0384892 0.0930123 0.390907
vt 0.997181 0.891992
vn 0.2663331 -0.125367 0.9556934
vt 0.582086 0.00853869
vt 0.771522 0.594002
vt 0.843968 0.0085386
o merged_0_0_node
g polygon_0
usemtl mat_head_mat_id
f 1/1/1 2/2/2 3/3/3
f 1/1/1 4/4/4 2/2/2
f 1/1/1 3/3/3 5/5/5
f 1/1/1 6/6/6 4/4/4
f 1/1/1 5/5/5 7/7/7
f 1/1/1 8/8/8 6/6/6
f 1/1/1 7/7/7 9/9/4
f 1/1/1 10/10/9 8/8/8
f 1/1/1 9/9/4 10/10/9
f 9/9/4 7/7/7 10/10/9
f 4/4/4 6/6/6 2/2/2
f 3/3/3 11/11/10 5/5/5
f 3/3/3 2/2/2 12/12/11
f 3/3/3 12/12/11 11/11/10
f 12/12/11 8/8/8 11/11/10
f 12/12/11 6/6/6 8/8/8
f 12/12/11 2/2/2 6/6/6
f 7/7/7 13/13/12 10/10/9
f 7/7/7 5/5/5 13/13/12
f 13/13/12 5/5/5 11/11/10
f 13/13/12 8/8/8 10/10/9
f 13/13/12 11/11/10 8/8/8
f 14/14/13 15/15/14 16/16/15
f 14/14/13 17/17/16 15/15/14
f 14/14/13 16/16/15 18/15/17
f 14/14/13 19/18/18 17/17/16
f 14/14/13 18/15/17 20/17/19
f 14/14/13 21/19/20 19/18/18
f 14/14/13 20/17/19 22/18/21
f 14/14/13 22/18/21 21/19/20
f 15/15/14 23/20/22 16/16/15
f 15/15/14 17/17/16 24/21/23
f 15/15/14 25/22/24 23/20/22
f 15/15/14 24/21/23 25/22/24
f 16/16/15 23/20/22 18/15/17
f 19/18/18 26/23/25 17/17/16
f 20/17/19 27/23/26 22/18/21
f 20/17/19 18/15/17 28/21/27
f 20/17/19 29/24/28 27/23/26
f 20/17/19 28/21/27 30/25/29
f 20/17/19 30/25/29 29/24/28
f 24/21/23 31/25/30 25/22/24
f 24/21/23 17/17/16 31/25/30
f 23/20/22 32/22/31 18/15/17
f 23/20/22 25/22/24 33/26/32
f 23/20/22 33/26/32 32/22/31
f 28/21/27 32/22/31 30/25/29
f 28/21/27 18/15/17 32/22/31
f 26/23/25 34/24/33 17/17/16
f 26/23/25 35/27/34 34/24/33
f 34/24/33 31/25/30 17/17/16
f 34/24/33 35/27/34 31/25/30
f 27/23/26 29/24/28 36/27/35
f 29/24/28 30/25/29 36/27/35
f 25/22/24 37/28/36 33/26/32
f 25/22/24 31/25/30 37/28/36
f 32/22/31 38/28/37 30/25/29
f 32/22/31 33/26/32 38/28/37
f 35/27/34 39/29/38 31/25/30
f 35/27/34 40/30/39 39/29/38
f 35/27/34 41/31/40 40/30/39
f 35/27/34 42/32/41 41/31/40
f 42/32/41 36/27/35 41/31/40
f 37/28/36 43/33/42 33/26/32
f 37/28/36 31/25/30 44/34/43
f 37/28/36 44/34/43 43/33/42
f 31/25/30 39/29/38 44/34/43
f 33/26/32 43/33/42 38/28/37
f 30/25/29 45/29/44 36/27/35
f 30/25/29 38/28/37 46/34/45
f 30/25/29 46/34/45 45/29/44
f 38/28/37 43/33/42 46/34/45
f 40/30/39 41/31/40 47/35/46
f 40/30/39 48/36/47 39/29/38
f 40/30/39 47/35/46 49/37/48
f 40/30/39 50/38/49 48/36/47
f 40/30/39 49/37/50 50/38/49
f 49/37/50 39/29/38 48/36/47
f 49/37/50 48/36/47 50/38/49
f 39/29/38 49/37/48 44/34/43
f 36/27/35 45/29/44 51/30/51
f 36/27/35 51/30/51 41/31/40
f 41/31/40 51/30/51 47/35/46
f 43/33/42 52/39/52 46/34/45
f 43/33/42 44/34/43 52/39/52
f 49/37/48 47/35/46 52/39/52
f 49/37/48 52/39/52 44/34/43
f 45/29/44 53/36/53 51/30/51
f 45/29/44 46/34/45 54/37/54
f 45/29/44 54/37/55 53/36/53
f 54/37/54 52/39/52 47/35/46
f 54/37/54 47/35/46 51/30/51
f 54/37/54 46/34/45 52/39/52
f 54/37/55 55/38/56 53/36/53
f 54/37/55 51/30/51 55/38/56
f 55/38/56 51/30/51 53/36/53
f 56/40/57 57/41/58 58/42/59
f 56/40/57 59/43/60 57/41/58
f 56/40/57 60/44/61 59/43/60
f 56/40/57 61/45/62 60/44/61
f 56/40/57 62/46/63 61/45/62
f 56/40/57 63/47/64 62/46/63
f 56/40/57 58/42/65 63/47/64
f 58/42/59 57/41/58 64/48/66
f 59/43/60 60/44/61 65/49/67
f 59/43/60 65/49/67 57/41/58
f 57/41/58 65/49/67 64/48/66
f 61/45/62 62/46/63 66/50/68
f 61/45/62 66/50/68 67/51/69
f 62/46/63 63/47/64 66/50/68
f 58/42/65 64/48/70 63/47/64
f 63/47/64 64/48/70 66/50/68
f 60/44/61 68/52/71 65/49/67
f 64/48/66 65/49/67 69/53/72
f 64/48/66 69/53/72 70/54/73
f 65/49/67 68/52/71 69/53/72
f 67/51/69 66/50/68 71/55/74
f 67/51/69 71/55/74 72/56/75
f 67/51/69 72/56/75 73/57/76
f 67/51/69 73/57/76 74/58/77
f 66/50/68 64/48/70 71/55/74
f 70/54/73 69/53/72 75/59/78
f 70/54/73 75/59/78 76/60/79
f 70/54/73 76/60/79 77/61/80
f 75/59/78 69/53/72 68/52/71
f 75/59/78 68/52/71 76/60/79
f 72/56/75 78/62/81 73/57/76
f 72/56/75 71/55/74 78/62/81
f 71/55/74 64/48/70 78/62/81
f 74/58/77 73/57/76 79/63/82
f 79/63/82 73/57/76 78/62/81
f 77/61/80 76/60/79 80/64/83
f 80/64/83 76/60/79 68/52/71
f 81/65/84 19/66/85 21/67/86
f 81/65/84 82/68/87 19/66/85
f 81/65/84 21/67/86 83/69/88
f 81/65/84 83/69/88 82/68/87
f 19/66/85 82/68/87 26/70/89
f 21/67/86 84/71/90 83/69/88
f 21/67/86 22/72/91 84/71/90
f 82/68/87 85/73/92 26/70/89
f 83/69/88 84/71/90 86/74/93
f 84/71/90 22/72/91 86/74/93
f 85/73/92 87/75/94 26/70/89
f 85/73/92 86/74/93 27/76/95
f 85/73/92 27/76/95 87/75/94
f 27/76/95 86/74/93 22/72/91
f 88/77/88 89/78/96 90/79/97
f 88/77/88 91/80/98 89/78/96
f 88/77/88 92/81/99 91/80/98
f 83/82/88 86/83/93 85/84/92
f 83/82/88 85/84/92 82/83/87
v 0 0.0311947 0.00663999
vt -0.00143018 0.490943
vn 0 -0.9999147 0.0130623
v -0.12611 0.04440286 0.0483366
vt 0.362403 0.344393
vn -0.865878 -0.496305 -0.06274129
v -0.12611 0.03966291 -0.02854376
vt 0.362403 0.599869
vn -0.8272628 -0.5559165 0.08119859
v -0.0977466 -9.496686E-06 0.115355
vt 0.260436 0.222032
vn -0.3234589 -0.6812576 0.6567057
v -0.0977466 -1.085588E-05 -0.1195933
vt 0.260436 0.750667
vn -0.3378358 -0.6717914 -0.6592141
v 0 0.04549504 0.1567946
vt -0.00143021 0.139622
vn 0 -0.3825478 0.9239357
v 0 0.04581015 -0.1559112
vt -0.0014302 0.849317
vn 0 -0.3690762 -0.9293991
v 0.0977465 -9.496686E-06 0.115355
vn 0.323458 -0.6812578 0.656706
v 0.0977465 -1.085588E-05 -0.1195933
vn 0.3378358 -0.6717914 -0.6592141
v 0.12611 0.04440286 0.0483366
vn 0.8658776 -0.4963058 -0.06274096
v 0.12611 0.03966291 -0.02854366
vn 0.8272628 -0.5559165 0.08119838
v -0.13474 0.1124683 0.1044271
vt 0.557645 0.161271
vn -0.8440911 0.2353967 0.4817664
v 0 0.1124682 -0.1585469
vt -0.00143019 1.00055
vn 0 0.1977789 -0.9802467
v -0.13474 0.1124682 -0.09538397
vt 0.557645 0.88119
vn -0.8377057 0.2670062 -0.4763999
vt 0.426735 1.00055
v 0 0.1124683 0.1586437
vt -0.0014302 0.00833745
vn 0 0.08729351 0.9961826
v 0.13474 0.1124683 0.1044271
vn 0.8440914 0.2353968 0.4817655
v 0.13474 0.1124682 -0.09538397
vn 0.8377061 0.2670062 -0.4763991
vt 0.453441 0.0105878
v -0.0938194 0.181872 -0.0795326
vt 0.918146 0.960132
vn -0.608613 0.731185 -0.308154
vt 0.927419 0.904217
vt 0.81053 0.904217
vt 0.964368 0.904217
v -0.0938195 0.181872 0.0965433
vt 0.815142 0.960132
vn -0.706086 0.608984 0.36136
v 0 0.181872 -0.131395
vt 0.948485 0.960132
vn 0 0.7322081 -0.6810811
v 0 0.19575 0.0543438
vt 0.839829 0.971313
vn 0 0.9997163 -0.02381661
vt 0.778814 0.904217
v 0.0938194 0.181872 -0.0795326
vn 0.608613 0.731185 -0.308154
v 0 0.181872 0.150289
vt 0.783701 0.960132
vn 0 0.248211 0.968706
v 0.0938194 0.181872 0.0965434
vn 0.7060857 0.6089838 0.3613609
o merged_1_0_node
g polygon_0
usemtl mat_body_mat_id
f 93/85/100 94/86/101 95/87/102
f 93/85/100 96/88/103 94/86/101
f 93/85/100 95/87/102 97/89/104
f 93/85/100 98/90/105 96/88/103
f 93/85/100 97/89/104 99/91/106
f 93/85/100 100/88/107 98/90/105
f 93/85/100 99/91/106 101/89/108
f 93/85/100 102/86/109 100/88/107
f 93/85/100 101/89/108 103/87/110
f 93/85/100 103/87/110 102/86/109
f 94/86/101 104/92/111 95/87/102
f 94/86/101 96/88/103 104/92/111
f 97/89/104 105/93/112 99/91/106
f 97/89/104 95/87/102 106/94/113
f 97/89/104 106/95/113 105/93/112
f 106/94/113 95/87/102 104/92/111
f 99/91/106 105/93/112 101/89/108
f 98/90/105 100/88/107 107/96/114
f 98/90/105 107/96/114 96/88/103
f 103/87/110 108/92/115 102/86/109
f 103/87/110 101/89/108 109/94/116
f 103/87/110 109/94/116 108/92/115
f 108/92/115 100/88/107 102/86/109
f 105/93/112 109/95/116 101/89/108
f 107/96/114 104/97/111 96/88/103
f 107/96/114 100/88/107 108/97/115
f 110/98/117 106/99/113 104/100/111
f 110/98/117 105/101/112 106/99/113
f 110/98/117 104/100/111 111/102/118
f 110/98/117 112/103/119 105/101/112
f 110/98/117 111/102/118 113/104/120
f 110/98/117 113/104/120 112/103/119
f 104/100/111 107/105/114 111/102/118
f 105/101/112 112/103/119 114/98/121
f 105/101/112 114/98/121 109/99/116
f 112/103/119 113/104/120 114/98/121
f 107/105/114 115/106/122 111/102/118
f 107/105/114 116/102/123 115/106/122
f 107/105/114 108/100/115 116/102/123
f 114/98/121 108/100/115 109/99/116
f 114/98/121 113/104/120 116/102/123
f 114/98/121 116/102/123 108/100/115
vt -0.000418782 0.767377
vn 0 0.199548 0.979888
vt -0.000418782 1.00123
vt 0.789943 0.748137
vt 1.00289 0.973639
o merged_2_0_node
g polygon_0
usemtl TEX_ANIM_EYE_mat_id
f 87/107/124 42/108/41 26/109/25
f 42/108/41 35/110/34 26/109/25
f 87/107/124 27/109/26 42/108/41
f 42/108/41 27/109/26 36/110/35
